<?xml version="1.0" standalone="yes"?>
<svg width="512" height="512">
<path style="fill:#000000; stroke:none;" d="M0 0L0 117L1 117C2.1615 60.7265 60.706 2.16214 117 1L82 0L0 0z"/>
<path style="fill:#090011; stroke:none;" d="M117 0.425171C102.88 2.34717 90.0982 5.96866 77 11.5787C39.2893 27.7304 9.83879 64.6671 2.2608 105C-2.66686 131.227 0 159.393 0 186L0 305C0 356.538 -7.8072 412.538 23.9097 457C46.2044 488.254 81.8998 508.19 120 511.83C139.321 513.676 159.587 512 179 512L294 512C328.894 512 366.507 515.927 401 510.576C450.121 502.954 493.581 466.401 506.848 418C514.345 390.65 512 362.104 512 334L512 202C512 152.272 519.163 98.8784 488.573 56C466.221 24.6693 432.11 4.84335 394 0.285492C374.518 -2.04443 353.625 0 334 0L225 0C189.929 0 151.728 -4.30206 117 0.425171z"/>
<path style="fill:#000000; stroke:none;" d="M395 0L395 1C451.286 2.16199 509.839 60.7398 511 117L512 117L512 0L395 0z"/>
<path style="fill:#a39fa6; stroke:none;" d="M254 72L254 73L260 72L254 72z"/>
<path style="fill:#ffffff; stroke:none;" d="M104 114L104 248C104 280.525 101.989 311.713 115.952 342C128.438 369.082 150.113 390.522 177 403.307C193.322 411.068 211.314 415.354 228 422.363C235.569 425.543 242.892 430.284 249.245 435.446C251.44 437.229 255.089 441.878 258.093 441.809C261.641 441.726 265.387 437.065 268 435.015C274.49 429.924 281.571 425.186 289.09 421.742C303.672 415.062 319.28 411.118 334 404.829C360.424 393.541 381.763 374.865 396.184 350C414.619 318.215 413 284.402 413 249L413 115C375.238 109.915 338.379 98.6185 302 87.6921C293.004 84.9901 283.719 82.3723 275 78.8549C270.111 76.8828 264.301 72.5893 259 72.3217C254.92 72.1158 250.762 75.0147 247 76.3303C236.679 79.9392 226.392 83.8125 215.91 86.9136C178.924 97.8561 141.719 106.219 104 114z"/>
<path style="fill:#d6d4db; stroke:none;" d="M251 75L254 73L251 75z"/>
<path style="fill:#75737b; stroke:none;" d="M249.667 74.3333L250.333 74.6667L249.667 74.3333z"/>
<path style="fill:#4b4751; stroke:none;" d="M265.667 74.3333L266.333 74.6667L265.667 74.3333z"/>
<path style="fill:#4e4a55; stroke:none;" d="M246.667 75.3333L247.333 75.6667L246.667 75.3333z"/>
<path style="fill:#acabb2; stroke:none;" d="M248.667 75.3333L249.333 75.6667L248.667 75.3333z"/>
<path style="fill:#89858e; stroke:none;" d="M266.667 75.3333L267.333 75.6667L266.667 75.3333z"/>
<path style="fill:#58545d; stroke:none;" d="M268 75L271 77L268 75z"/>
<path style="fill:#8b8991; stroke:none;" d="M245.667 76.3333L246.333 76.6667L245.667 76.3333z"/>
<path style="fill:#838189; stroke:none;" d="M242.667 77.3333L243.333 77.6667L242.667 77.3333z"/>
<path style="fill:#4e4b52; stroke:none;" d="M272.667 77.3333L273.333 77.6667L272.667 77.3333z"/>
<path style="fill:#48484c; stroke:none;" d="M238 78L238 79L241 79L238 78z"/>
<path style="fill:#aba9ae; stroke:none;" d="M273 78L273 79L276 79L273 78z"/>
<path style="fill:#38373c; stroke:none;" d="M235 79L235 80L238 80L235 79z"/>
<path style="fill:#afaeb2; stroke:none;" d="M238.667 79.3333L239.333 79.6667L238.667 79.3333z"/>
<path style="fill:#89888f; stroke:none;" d="M276.667 79.3333L277.333 79.6667L276.667 79.3333z"/>
<path style="fill:#828285; stroke:none;" d="M234.667 80.3333L235.333 80.6667L234.667 80.3333z"/>
<path style="fill:#8f8e95; stroke:none;" d="M279.667 80.3333L280.333 80.6667L279.667 80.3333z"/>
<path style="fill:#908f92; stroke:none;" d="M231.667 81.3333L232.333 81.6667L231.667 81.3333z"/>
<path style="fill:#737079; stroke:none;" d="M283.667 81.3333L284.333 81.6667L283.667 81.3333z"/>
<path style="fill:#404045; stroke:none;" d="M226.667 82.3333L227.333 82.6667L226.667 82.3333z"/>
<path style="fill:#7e7e81; stroke:none;" d="M228.667 82.3333L229.333 82.6667L228.667 82.3333z"/>
<path style="fill:#bebcc0; stroke:none;" d="M284 82L284 83L287 83L284 82z"/>
<path style="fill:#58545c; stroke:none;" d="M287.667 82.3333L288.333 82.6667L287.667 82.3333z"/>
<path style="fill:#818186; stroke:none;" d="M225.667 83.3333L226.333 83.6667L225.667 83.3333z"/>
<path style="fill:#98969c; stroke:none;" d="M288.667 83.3333L289.333 83.6667L288.667 83.3333z"/>
<path style="fill:#727179; stroke:none;" d="M221.667 84.3333L222.333 84.6667L221.667 84.3333z"/>
<path style="fill:#828084; stroke:none;" d="M292.667 84.3333L293.333 84.6667L292.667 84.3333z"/>
<path style="fill:#5a5760; stroke:none;" d="M217.667 85.3333L218.333 85.6667L217.667 85.3333z"/>
<path style="fill:#6d6d70; stroke:none;" d="M296.667 85.3333L297.333 85.6667L296.667 85.3333z"/>
<path style="fill:#44414a; stroke:none;" d="M213 86L213 87L216 87L213 86z"/>
<path style="fill:#a19ea6; stroke:none;" d="M216 86L216 87L219 87L216 86z"/>
<path style="fill:#abacaf; stroke:none;" d="M297.667 86.3333L298.333 86.6667L297.667 86.3333z"/>
<path style="fill:#66666d; stroke:none;" d="M299.667 86.3333L300.333 86.6667L299.667 86.3333z"/>
<path style="fill:#8c8991; stroke:none;" d="M212.667 87.3333L213.333 87.6667L212.667 87.3333z"/>
<path style="fill:#939299; stroke:none;" d="M301.667 87.3333L302.333 87.6667L301.667 87.3333z"/>
<path style="fill:#8a878f; stroke:none;" d="M208.667 88.3333L209.333 88.6667L208.667 88.3333z"/>
<path style="fill:#b3b1b7; stroke:none;" d="M304.667 88.3333L305.333 88.6667L304.667 88.3333z"/>
<path style="fill:#5b595f; stroke:none;" d="M306 88L306 89L309 89L306 88z"/>
<path style="fill:#726e78; stroke:none;" d="M204.667 89.3333L205.333 89.6667L204.667 89.3333z"/>
<path style="fill:#77757b; stroke:none;" d="M309.667 89.3333L310.333 89.6667L309.667 89.3333z"/>
<path style="fill:#36323a; stroke:none;" d="M196 91L196 92L201 91L196 91z"/>
<path style="fill:#6c6870; stroke:none;" d="M201 90L201 91L204 91L201 90z"/>
<path style="fill:#969498; stroke:none;" d="M311.667 90.3333L312.333 90.6667L311.667 90.3333z"/>
<path style="fill:#a8a5ac; stroke:none;" d="M199.667 91.3333L200.333 91.6667L199.667 91.3333z"/>
<path style="fill:#8a878e; stroke:none;" d="M315 91L315 92L318 92L315 91z"/>
<path style="fill:#5b575e; stroke:none;" d="M193 92L193 93L196 93L193 92z"/>
<path style="fill:#7d7a83; stroke:none;" d="M319.667 92.3333L320.333 92.6667L319.667 92.3333z"/>
<path style="fill:#928f95; stroke:none;" d="M191.667 93.3333L192.333 93.6667L191.667 93.3333z"/>
<path style="fill:#c7c3c8; stroke:none;" d="M193 93L193 94L196 94L193 93z"/>
<path style="fill:#bfbec3; stroke:none;" d="M320 93L320 94L323 94L320 93z"/>
<path style="fill:#7e7b82; stroke:none;" d="M323 93L323 94L327 95L327 94L323 93z"/>
<path style="fill:#726f75; stroke:none;" d="M187 94L187 95L190 95L187 94z"/>
<path style="fill:#6b6771; stroke:none;" d="M183.667 95.3333L184.333 95.6667L183.667 95.3333z"/>
<path style="fill:#8d8c94; stroke:none;" d="M177 97L177 98L183 97L177 97z"/>
<path style="fill:#7e7e82; stroke:none;" d="M332.667 96.3333L333.333 96.6667L332.667 96.3333z"/>
<path style="fill:#3b3a43; stroke:none;" d="M174 97L174 98L177 98L174 97z"/>
<path style="fill:#9f9fa1; stroke:none;" d="M334.667 97.3333L335.333 97.6667L334.667 97.3333z"/>
<path style="fill:#2e2f31; stroke:none;" d="M336 97L336 98L340 98L336 97z"/>
<path style="fill:#595560; stroke:none;" d="M172.667 98.3333L173.333 98.6667L172.667 98.3333z"/>
<path style="fill:#b1aeb7; stroke:none;" d="M174 98L174 99L177 99L174 98z"/>
<path style="fill:#949596; stroke:none;" d="M338.667 98.3333L339.333 98.6667L338.667 98.3333z"/>
<path style="fill:#69656c; stroke:none;" d="M168 99L168 100L171 100L168 99z"/>
<path style="fill:#c7c7c8; stroke:none;" d="M342 99L342 100L347 101L347 100L342 99z"/>
<path style="fill:#4c4951; stroke:none;" d="M163.667 100.333L164.333 100.667L163.667 100.333z"/>
<path style="fill:#878489; stroke:none;" d="M165 100L165 101L168 101L165 100z"/>
<path style="fill:#7b7a7c; stroke:none;" d="M347 100L347 101L350 101L347 100z"/>
<path style="fill:#45434b; stroke:none;" d="M159 101L159 102L162 102L159 101z"/>
<path style="fill:#939197; stroke:none;" d="M162.667 101.333L163.333 101.667L162.667 101.333z"/>
<path style="fill:#c6c6c7; stroke:none;" d="M348.667 101.333L349.333 101.667L348.667 101.333z"/>
<path style="fill:#878688; stroke:none;" d="M350.667 101.333L351.333 101.667L350.667 101.333z"/>
<path style="fill:#45424a; stroke:none;" d="M155 102L155 103L158 103L155 102z"/>
<path style="fill:#b0adb4; stroke:none;" d="M158.667 102.333L159.333 102.667L158.667 102.333z"/>
<path style="fill:#8e8a91; stroke:none;" d="M354.667 102.333L355.333 102.667L354.667 102.333z"/>
<path style="fill:#4d4a53; stroke:none;" d="M150 103L150 104L153 104L150 103z"/>
<path style="fill:#a4a0a8; stroke:none;" d="M153.667 103.333L154.333 103.667L153.667 103.333z"/>
<path style="fill:#8f8a90; stroke:none;" d="M358.667 103.333L359.333 103.667L358.667 103.333z"/>
<path style="fill:#464248; stroke:none;" d="M360.667 103.333L361.333 103.667L360.667 103.333z"/>
<path style="fill:#706c73; stroke:none;" d="M145 104L145 105L150 105L145 104z"/>
<path style="fill:#4f4a52; stroke:none;" d="M362 104L362 105L367 105L362 104z"/>
<path style="fill:#4b4952; stroke:none;" d="M142 105L142 106L145 106L142 105z"/>
<path style="fill:#b8b7ba; stroke:none;" d="M145.667 105.333L146.333 105.667L145.667 105.333z"/>
<path style="fill:#757376; stroke:none;" d="M256 105L256 106L260 106L256 105z"/>
<path style="fill:#bebabf; stroke:none;" d="M364 105L364 106L367 106L364 105z"/>
<path style="fill:#4e4e55; stroke:none;" d="M137.667 106.333L138.333 106.667L137.667 106.333z"/>
<path style="fill:#8c8c93; stroke:none;" d="M139.667 106.333L140.333 106.667L139.667 106.333z"/>
<path style="fill:#6f6c70; stroke:none;" d="M253.667 106.333L254.333 106.667L253.667 106.333z"/>
<path style="fill:#080111; stroke:none;" d="M133 140L133 254C133 282.214 131.645 309.55 146.042 335C164.929 368.385 198.741 379.551 233 391.039C240.72 393.627 250.158 402.411 258 402.745C266.587 403.11 279.812 392.025 288 388.735C320.692 375.596 354.478 366.295 372.033 332C384.878 306.908 383 281.331 383 254L383 140C357.082 135.117 330.974 128.615 306 120.069C292.072 115.302 272.757 106.079 258 106.184C246.953 106.262 234.565 113.024 223.91 115.834C193.472 123.862 163.67 132.969 133 140z"/>
<path style="fill:#959297; stroke:none;" d="M261.667 106.333L262.333 106.667L261.667 106.333z"/>
<path style="fill:#aaa7ad; stroke:none;" d="M369.667 106.333L370.333 106.667L369.667 106.333z"/>
<path style="fill:#5c5960; stroke:none;" d="M371.667 106.333L372.333 106.667L371.667 106.333z"/>
<path style="fill:#444549; stroke:none;" d="M132.667 107.333L133.333 107.667L132.667 107.333z"/>
<path style="fill:#808285; stroke:none;" d="M134 107L134 108L137 108L134 107z"/>
<path style="fill:#afacaf; stroke:none;" d="M248.667 107.333L249.333 107.667L248.667 107.333z"/>
<path style="fill:#5e5b5f; stroke:none;" d="M250.667 107.333L251.333 107.667L250.667 107.333z"/>
<path style="fill:#a29fa5; stroke:none;" d="M265.667 107.333L266.333 107.667L265.667 107.333z"/>
<path style="fill:#767278; stroke:none;" d="M373 107L373 108L378 108L373 107z"/>
<path style="fill:#514f57; stroke:none;" d="M125 108L125 109L131 109L125 108z"/>
<path style="fill:#9b9b9f; stroke:none;" d="M131 108L131 109L134 109L131 108z"/>
<path style="fill:#c3c1c5; stroke:none;" d="M244 108L244 109L247 109L244 108z"/>
<path style="fill:#676469; stroke:none;" d="M247 108L247 109L250 109L247 108z"/>
<path style="fill:#5b585f; stroke:none;" d="M266.667 108.333L267.333 108.667L266.667 108.333z"/>
<path style="fill:#98959c; stroke:none;" d="M268 108L268 109L271 109L268 108z"/>
<path style="fill:#87848a; stroke:none;" d="M378 108L378 109L381 109L378 108z"/>
<path style="fill:#2a2530; stroke:none;" d="M381 108L381 109L388 110L381 108z"/>
<path style="fill:#8b8a90; stroke:none;" d="M125 109L125 110L128 110L125 109z"/>
<path style="fill:#7a777d; stroke:none;" d="M243.667 109.333L244.333 109.667L243.667 109.333z"/>
<path style="fill:#979399; stroke:none;" d="M271.667 109.333L272.333 109.667L271.667 109.333z"/>
<path style="fill:#bab7bb; stroke:none;" d="M381 109L381 110L384 110L381 109z"/>
<path style="fill:#433e47; stroke:none;" d="M117 110L117 111L120 111L117 110z"/>
<path style="fill:#96929a; stroke:none;" d="M120.667 110.333L121.333 110.667L120.667 110.333z"/>
<path style="fill:#a3a0a6; stroke:none;" d="M238.667 110.333L239.333 110.667L238.667 110.333z"/>
<path style="fill:#57545a; stroke:none;" d="M240.667 110.333L241.333 110.667L240.667 110.333z"/>
<path style="fill:#67636a; stroke:none;" d="M274.667 110.333L275.333 110.667L274.667 110.333z"/>
<path style="fill:#b8b8ba; stroke:none;" d="M276.667 110.333L277.333 110.667L276.667 110.333z"/>
<path style="fill:#7a767b; stroke:none;" d="M389.667 110.333L390.333 110.667L389.667 110.333z"/>
<path style="fill:#757179; stroke:none;" d="M113 111L113 112L116 112L113 111z"/>
<path style="fill:#ccc8ce; stroke:none;" d="M116 111L116 112L121 112L116 111z"/>
<path style="fill:#afadaf; stroke:none;" d="M234 111L234 112L237 112L234 111z"/>
<path style="fill:#818083; stroke:none;" d="M278.667 111.333L279.333 111.667L278.667 111.333z"/>
<path style="fill:#6f6c71; stroke:none;" d="M393 111L393 112L402 113L393 111z"/>
<path style="fill:#78747c; stroke:none;" d="M109.667 112.333L110.333 112.667L109.667 112.333z"/>
<path style="fill:#939094; stroke:none;" d="M232.667 112.333L233.333 112.667L232.667 112.333z"/>
<path style="fill:#474348; stroke:none;" d="M234 112L234 113L237 113L234 112z"/>
<path style="fill:#908f92; stroke:none;" d="M282.667 112.333L283.333 112.667L282.667 112.333z"/>
<path style="fill:#a9a6aa; stroke:none;" d="M104 113L104 114L107 114L104 113z"/>
<path style="fill:#7b787d; stroke:none;" d="M229 113L229 114L232 114L229 113z"/>
<path style="fill:#4a494c; stroke:none;" d="M284 113L284 114L287 114L284 113z"/>
<path style="fill:#676269; stroke:none;" d="M405 113L405 114L410 114L405 113z"/>
<path style="fill:#5f5b66; stroke:none;" d="M102 114L102 292L103 292L103 167L103 131L102 114z"/>
<path style="fill:#cdcbce; stroke:none;" d="M103 114L103 286L104 286L104 165C104 150.7 108.506 127.121 103 114z"/>
<path style="fill:#aca9ad; stroke:none;" d="M224 114L224 115L227 115L224 114z"/>
<path style="fill:#636464; stroke:none;" d="M288 114L288 115L291 115L288 114z"/>
<path style="fill:#b4aeb7; stroke:none;" d="M409 114L409 115L413 115L409 114z"/>
<path style="fill:#615f63; stroke:none;" d="M413 114L413 295L414 295L414 168L414 132L413 114z"/>
<path style="fill:#bbb9bc; stroke:none;" d="M220 115L220 116L223 116L220 115z"/>
<path style="fill:#29252c; stroke:none;" d="M223 115L223 116L227 116L223 115z"/>
<path style="fill:#868887; stroke:none;" d="M292 115L292 116L295 116L292 115z"/>
<path style="fill:#79777a; stroke:none;" d="M219.667 116.333L220.333 116.667L219.667 116.333z"/>
<path style="fill:#919293; stroke:none;" d="M295.667 116.333L296.333 116.667L295.667 116.333z"/>
<path style="fill:#4f4c4f; stroke:none;" d="M216.667 117.333L217.333 117.667L216.667 117.333z"/>
<path style="fill:#757777; stroke:none;" d="M298 117L298 118L301 118L298 117z"/>
<path style="fill:#bdbcbd; stroke:none;" d="M210.667 118.333L211.333 118.667L210.667 118.333z"/>
<path style="fill:#706d6e; stroke:none;" d="M212.667 118.333L213.333 118.667L212.667 118.333z"/>
<path style="fill:#929493; stroke:none;" d="M302.667 118.333L303.333 118.667L302.667 118.333z"/>
<path style="fill:#737172; stroke:none;" d="M209 119L209 120L212 120L209 119z"/>
<path style="fill:#515252; stroke:none;" d="M303 119L303 120L306 120L303 119z"/>
<path style="fill:#8c8b8d; stroke:none;" d="M205 120L205 121L208 121L205 120z"/>
<path style="fill:#6f6f71; stroke:none;" d="M307.667 120.333L308.333 120.667L307.667 120.333z"/>
<path style="fill:#989699; stroke:none;" d="M201 121L201 122L204 122L201 121z"/>
<path style="fill:#3d3c42; stroke:none;" d="M310 121L310 122L315 123L315 122L310 121z"/>
<path style="fill:#949095; stroke:none;" d="M195 123L195 124L200 123L195 123z"/>
<path style="fill:#9c9d9f; stroke:none;" d="M315.667 122.333L316.333 122.667L315.667 122.333z"/>
<path style="fill:#808184; stroke:none;" d="M317 123L317 124L320 124L317 123z"/>
<path style="fill:#a19fa2; stroke:none;" d="M191.667 124.333L192.333 124.667L191.667 124.333z"/>
<path style="fill:#49464a; stroke:none;" d="M193.667 124.333L194.333 124.667L193.667 124.333z"/>
<path style="fill:#68686d; stroke:none;" d="M320.667 124.333L321.333 124.667L320.667 124.333z"/>
<path style="fill:#c2c2c4; stroke:none;" d="M322.667 124.333L323.333 124.667L322.667 124.333z"/>
<path style="fill:#7a787e; stroke:none;" d="M185 126L185 127L190 126L185 126z"/>
<path style="fill:#a1a1a4; stroke:none;" d="M325.667 125.333L326.333 125.667L325.667 125.333z"/>
<path style="fill:#565658; stroke:none;" d="M326 126L326 127L329 127L326 126z"/>
<path style="fill:#adabaf; stroke:none;" d="M329.667 126.333L330.333 126.667L329.667 126.333z"/>
<path style="fill:#96949a; stroke:none;" d="M181.667 127.333L182.333 127.667L181.667 127.333z"/>
<path style="fill:#46434c; stroke:none;" d="M183.667 127.333L184.333 127.667L183.667 127.333z"/>
<path style="fill:#676369; stroke:none;" d="M330.667 127.333L331.333 127.667L330.667 127.333z"/>
<path style="fill:#9b989d; stroke:none;" d="M177.667 128.333L178.333 128.667L177.667 128.333z"/>
<path style="fill:#716b73; stroke:none;" d="M334.667 128.333L335.333 128.667L334.667 128.333z"/>
<path style="fill:#b4b1b6; stroke:none;" d="M336.667 128.333L337.333 128.667L336.667 128.333z"/>
<path style="fill:#bebbc0; stroke:none;" d="M172.667 129.333L173.333 129.667L172.667 129.333z"/>
<path style="fill:#787479; stroke:none;" d="M174.667 129.333L175.333 129.667L174.667 129.333z"/>
<path style="fill:#8a878a; stroke:none;" d="M339 129L339 130L342 130L339 129z"/>
<path style="fill:#78757a; stroke:none;" d="M171.667 130.333L172.333 130.667L171.667 130.333z"/>
<path style="fill:#454345; stroke:none;" d="M340.667 130.333L341.333 130.667L340.667 130.333z"/>
<path style="fill:#858284; stroke:none;" d="M342.667 130.333L343.333 130.667L342.667 130.333z"/>
<path style="fill:#a39fa4; stroke:none;" d="M166.667 131.333L167.333 131.667L166.667 131.333z"/>
<path style="fill:#625f63; stroke:none;" d="M168.667 131.333L169.333 131.667L168.667 131.333z"/>
<path style="fill:#6c696d; stroke:none;" d="M345.667 131.333L346.333 131.667L345.667 131.333z"/>
<path style="fill:#b9b6ba; stroke:none;" d="M347 131L347 132L350 132L347 131z"/>
<path style="fill:#8b888d; stroke:none;" d="M162 132L162 133L165 133L162 132z"/>
<path style="fill:#636065; stroke:none;" d="M349 132L349 133L352 133L349 132z"/>
<path style="fill:#989599; stroke:none;" d="M156 133L156 134L160 134L156 133z"/>
<path style="fill:#28272b; stroke:none;" d="M160 133L160 134L165 134L160 133z"/>
<path style="fill:#38343d; stroke:none;" d="M240 133L240 134L245 134L240 133z"/>
<path style="fill:#6d6876; stroke:none;" d="M245 133L245 134L250 134L245 133z"/>
<path style="fill:#666268; stroke:none;" d="M353 133L353 134L356 134L353 133z"/>
<path style="fill:#b9b6bc; stroke:none;" d="M153 134L153 135L156 135L153 134z"/>
<path style="fill:#2e2a36; stroke:none;" d="M232 135L232 136L240 135L232 135z"/>
<path style="fill:#9c97a0; stroke:none;" d="M240 134L240 135L245 135L240 134z"/>
<path style="fill:#ffffff; stroke:none;" d="M153 229C167.598 223.386 168.777 204.066 176.985 192C193.442 167.806 219.67 148.788 249 145L249 134C202.623 137.66 153.033 179.675 153 229z"/>
<path style="fill:#c2bbc5; stroke:none;" d="M249 134L249 145L250 145L249 134z"/>
<path style="fill:#5a545d; stroke:none;" d="M250 134L250 146L251 146L250 134z"/>
<path style="fill:#514f55; stroke:none;" d="M356.667 134.333L357.333 134.667L356.667 134.333z"/>
<path style="fill:#929096; stroke:none;" d="M358 134L358 135L361 135L358 134z"/>
<path style="fill:#a5a2a7; stroke:none;" d="M149 135L149 136L152 136L149 135z"/>
<path style="fill:#96939a; stroke:none;" d="M234 135L234 136L237 136L234 135z"/>
<path style="fill:#281f51; stroke:none;" d="M267 135L267 154L268 154L267 135z"/>
<path style="fill:#96909b; stroke:none;" d="M268 135L268 144L269 144L269 136L273 136L268 135z"/>
<path style="fill:#615f64; stroke:none;" d="M361.667 135.333L362.333 135.667L361.667 135.333z"/>
<path style="fill:#9a999d; stroke:none;" d="M363.667 135.333L364.333 135.667L363.667 135.333z"/>
<path style="fill:#c4c1c7; stroke:none;" d="M143.667 136.333L144.333 136.667L143.667 136.333z"/>
<path style="fill:#87848a; stroke:none;" d="M145 136L145 137L148 137L145 136z"/>
<path style="fill:#98939a; stroke:none;" d="M226 137L226 138L231 137L226 137z"/>
<path style="fill:#fefdff; stroke:none;" d="M269 136L269 144L297 148C294.277 138.798 277.425 136.093 269 136z"/>
<path style="fill:#9e96ab; stroke:none;" d="M276 136L276 137L284 139L276 136z"/>
<path style="fill:#3f3f42; stroke:none;" d="M366 136L366 137L373 138L373 137L366 136z"/>
<path style="fill:#d5d2d8; stroke:none;" d="M133 138L133 139L140 138L133 138z"/>
<path style="fill:#959299; stroke:none;" d="M140 137L140 138L143 138L140 137z"/>
<path style="fill:#514a53; stroke:none;" d="M224.667 137.333L225.333 137.667L224.667 137.333z"/>
<path style="fill:#ceced0; stroke:none;" d="M373 137L373 138L377 138L373 137z"/>
<path style="fill:#87838b; stroke:none;" d="M136 138L136 139L139 139L136 138z"/>
<path style="fill:#908b92; stroke:none;" d="M223.667 138.333L224.333 138.667L223.667 138.333z"/>
<path style="fill:#4d4571; stroke:none;" d="M284 138L284 139L296 141L284 138z"/>
<path style="fill:#4e4e51; stroke:none;" d="M374.667 138.333L375.333 138.667L374.667 138.333z"/>
<path style="fill:#a4a3a6; stroke:none;" d="M376 138L376 139L380 139L376 138z"/>
<path style="fill:#807d83; stroke:none;" d="M132 139L132 215L133 215L133 163L132 139z"/>
<path style="fill:#48444c; stroke:none;" d="M133 139L133 140L136 140L133 139z"/>
<path style="fill:#8e85b1; stroke:none;" d="M286.667 139.333L287.333 139.667L286.667 139.333z"/>
<path style="fill:#2b2b31; stroke:none;" d="M380 139L380 140L383 140L383 295L384 295L384 139L380 139z"/>
<path style="fill:#a9a9b0; stroke:none;" d="M384 139L384 295L385 295L385 186C385 172.747 389.107 151.17 384 139z"/>
<path style="fill:#efecef; stroke:none;" d="M131 140L131 287L132 287L132 184C132 171.532 135.807 151.456 131 140z"/>
<path style="fill:#918d96; stroke:none;" d="M218.667 140.333L219.333 140.667L218.667 140.333z"/>
<path style="fill:#8e8a94; stroke:none;" d="M216.667 141.333L217.333 141.667L216.667 141.333z"/>
<path style="fill:#8076bf; stroke:none;" d="M291 141L291 142L299 147L299 142L291 141z"/>
<path style="fill:#a3a0a7; stroke:none;" d="M214.667 142.333L215.333 142.667L214.667 142.333z"/>
<path style="fill:#aeaab1; stroke:none;" d="M212.667 143.333L213.333 143.667L212.667 143.333z"/>
<path style="fill:#8d84e4; stroke:none;" d="M297 143C298.902 151.267 275.57 145 269 145L269 154C292.507 155.51 316.687 174.108 330.492 192.17C336.181 199.614 338.213 209.422 343.43 216.442C346.76 220.924 357.025 225.165 362 228C361.997 199.059 342.46 167.55 318 152.706C311.562 148.799 304.6 143.99 297 143z"/>
<path style="fill:#a19ca3; stroke:none;" d="M210.667 144.333L211.333 144.667L210.667 144.333z"/>
<path style="fill:#62579b; stroke:none;" d="M268 144L268 154L269 154L268 144z"/>
<path style="fill:#c7c4eb; stroke:none;" d="M269 144L269 145L277 145L269 144z"/>
<path style="fill:#46467e; stroke:none;" d="M302.667 144.333L303.333 144.667L302.667 144.333z"/>
<path style="fill:#8e8991; stroke:none;" d="M208.667 145.333L209.333 145.667L208.667 145.333z"/>
<path style="fill:#ced1f5; stroke:none;" d="M245 145L245 146L249 146L245 145z"/>
<path style="fill:#928be7; stroke:none;" d="M249 145C240.182 147.615 230.563 148.429 222 152.174C197.481 162.9 165.463 193.496 164 222C167.449 220.593 172.789 219.474 175.262 216.57C180.83 210.032 182.576 198.5 188.141 191.039C202.231 172.153 225.489 154.509 250 154L249 145z"/>
<path style="fill:#3c3c73; stroke:none;" d="M304.667 145.333L305.333 145.667L304.667 145.333z"/>
<path style="fill:#d8d2dd; stroke:none;" d="M205 147L205 148L209 147L205 147z"/>
<path style="fill:#413e83; stroke:none;" d="M250 146L250 154L251 154L250 146z"/>
<path style="fill:#b7b5e4; stroke:none;" d="M233 148L233 149L240 148L233 148z"/>
<path style="fill:#d1cff1; stroke:none;" d="M292 147L292 148L298 147L292 147z"/>
<path style="fill:#3b386b; stroke:none;" d="M309 147L312 149L309 147z"/>
<path style="fill:#b8b3bb; stroke:none;" d="M203.667 148.333L204.333 148.667L203.667 148.333z"/>
<path style="fill:#484177; stroke:none;" d="M315.667 151.333L316.333 151.667L315.667 151.333z"/>
<path style="fill:#bcbac0; stroke:none;" d="M197.667 152.333L198.333 152.667L197.667 152.333z"/>
<path style="fill:#87848c; stroke:none;" d="M196 153L197 154L196 153z"/>
<path style="fill:#252148; stroke:none;" d="M243 154L243 155L249 155L243 154z"/>
<path style="fill:#6c6594; stroke:none;" d="M272 154L272 155L275 155L272 154z"/>
<path style="fill:#bebcc4; stroke:none;" d="M193.667 155.333L194.333 155.667L193.667 155.333z"/>
<path style="fill:#7a777f; stroke:none;" d="M192 156L193 157L192 156z"/>
<path style="fill:#3a315e; stroke:none;" d="M277.667 156.333L278.333 156.667L277.667 156.333z"/>
<path style="fill:#89858f; stroke:none;" d="M191 157L192 158L191 157z"/>
<path style="fill:#22224d; stroke:none;" d="M228 159L228 160L234 158L228 159z"/>
<path style="fill:#2a1f51; stroke:none;" d="M281 157L281 158L286 159L286 158L281 157z"/>
<path style="fill:#7573b0; stroke:none;" d="M225 161L228 160L225 161z"/>
<path style="fill:#7168ab; stroke:none;" d="M287 159L287 160L292 161L287 159z"/>
<path style="fill:#615c6d; stroke:none;" d="M186 161L187 162L186 161z"/>
<path style="fill:#585194; stroke:none;" d="M292.667 161.333L293.333 161.667L292.667 161.333z"/>
<path style="fill:#686375; stroke:none;" d="M185 162L186 163L185 162z"/>
<path style="fill:#504c7a; stroke:none;" d="M218 163L218 164L222 163L218 163z"/>
<path style="fill:#58538f; stroke:none;" d="M294.667 162.333L295.333 162.667L294.667 162.333z"/>
<path style="fill:#6f6875; stroke:none;" d="M182 165L183 166L182 165z"/>
<path style="fill:#3e3a68; stroke:none;" d="M213 166L213 167L217 166L213 166z"/>
<path style="fill:#5f5866; stroke:none;" d="M181 166L182 167L181 166z"/>
<path style="fill:#6c66a5; stroke:none;" d="M302 166L305 168L302 166z"/>
<path style="fill:#7a7681; stroke:none;" d="M177 171L178 172L177 171z"/>
<path style="fill:#66616c; stroke:none;" d="M176 172L177 173L176 172z"/>
<path style="fill:#a8a4b0; stroke:none;" d="M175 173L175 175L177 173L175 173z"/>
<path style="fill:#3d3a41; stroke:none;" d="M252 173L252 174L264 174L252 173z"/>
<path style="fill:#716d76; stroke:none;" d="M248 174L248 175L254 175L248 174z"/>
<path style="fill:#a3a0a6; stroke:none;" d="M254 174L254 175L264 175L254 174z"/>
<path style="fill:#302d32; stroke:none;" d="M264 174L264 175L270 175L264 174z"/>
<path style="fill:#59535d; stroke:none;" d="M244.667 175.333L245.333 175.667L244.667 175.333z"/>
<path style="fill:#9a959e; stroke:none;" d="M246.667 175.333L247.333 175.667L246.667 175.333z"/>
<path style="fill:#ffffff; stroke:none;" d="M202 221C210.849 225.559 219.119 230.466 223.347 240C226.065 246.129 222.254 253.918 214.996 253.883C208.558 253.852 206.839 247.478 202.736 243.833C198.865 240.395 193.003 238.578 188 237.518C161.567 231.914 147.134 263.824 155.609 285C163.388 304.437 182.527 304 200 304L292 304C306.847 304 323.328 306.025 338 303.787C350.691 301.851 361.577 289.473 362.829 277C364.783 257.548 354.975 239.458 335 234.553C329.373 233.171 317.901 236.694 313.603 232.397C310.307 229.1 311.482 219.464 310.678 215C309.14 206.461 303.875 198.179 297.957 192.004C277.452 170.609 241.085 169.025 219.04 189.188C210.566 196.939 205.079 210.174 202 221z"/>
<path style="fill:#aca9ae; stroke:none;" d="M267 175L267 176L270 176L267 175z"/>
<path style="fill:#706d7a; stroke:none;" d="M173 176L174 177L173 176z"/>
<path style="fill:#89858e; stroke:none;" d="M241.667 176.333L242.333 176.667L241.667 176.333z"/>
<path style="fill:#7e7b7f; stroke:none;" d="M272.667 176.333L273.333 176.667L272.667 176.333z"/>
<path style="fill:#aaa5b2; stroke:none;" d="M172 177L172 179L174 177L172 177z"/>
<path style="fill:#5a585f; stroke:none;" d="M237 177L237 178L240 178L237 177z"/>
<path style="fill:#c4c1c7; stroke:none;" d="M240 177L240 178L243 178L240 177z"/>
<path style="fill:#b9b6ba; stroke:none;" d="M273 177L273 178L276 178L273 177z"/>
<path style="fill:#69656e; stroke:none;" d="M276 177L279 179L276 177z"/>
<path style="fill:#615d65; stroke:none;" d="M235.667 178.333L236.333 178.667L235.667 178.333z"/>
<path style="fill:#756f7d; stroke:none;" d="M170 180L171 181L170 180z"/>
<path style="fill:#8b878d; stroke:none;" d="M229 181L229 182L233 181L229 181z"/>
<path style="fill:#676468; stroke:none;" d="M282 180L285 182L282 180z"/>
<path style="fill:#9c959e; stroke:none;" d="M169 182L170 183L169 182z"/>
<path style="fill:#464348; stroke:none;" d="M285.667 182.333L286.333 182.667L285.667 182.333z"/>
<path style="fill:#b4acb7; stroke:none;" d="M168 183L167 186L168 183z"/>
<path style="fill:#d6d4d8; stroke:none;" d="M225 185L228 183L225 185z"/>
<path style="fill:#8b878e; stroke:none;" d="M287 183L288 184L287 183z"/>
<path style="fill:#625aa0; stroke:none;" d="M347 183L349 186L347 183z"/>
<path style="fill:#5e5b61; stroke:none;" d="M288.667 184.333L289.333 184.667L288.667 184.333z"/>
<path style="fill:#6c6472; stroke:none;" d="M166 186L167 187L166 186z"/>
<path style="fill:#7b7881; stroke:none;" d="M222 186L223 187L222 186z"/>
<path style="fill:#a39dab; stroke:none;" d="M165 188L163 193L164 193L165 188z"/>
<path style="fill:#4d4a8b; stroke:none;" d="M351.333 189.667L351.667 190.333L351.333 189.667z"/>
<path style="fill:#30295c; stroke:none;" d="M329 190L331 193L329 190z"/>
<path style="fill:#78777b; stroke:none;" d="M297 191L298 192L297 191z"/>
<path style="fill:#c2c0e5; stroke:none;" d="M176 192L175 195L176 192z"/>
<path style="fill:#625c68; stroke:none;" d="M161 194L161 197L162 197L163 194L161 194z"/>
<path style="fill:#7a767f; stroke:none;" d="M214 194L215 195L214 194z"/>
<path style="fill:#5c5861; stroke:none;" d="M213 195L214 196L213 195z"/>
<path style="fill:#574783; stroke:none;" d="M354.333 195.667L354.667 196.333L354.333 195.667z"/>
<path style="fill:#a39ea8; stroke:none;" d="M160 197L160 199L162 197L160 197z"/>
<path style="fill:#c3c0c4; stroke:none;" d="M212 197L211 200L212 197z"/>
<path style="fill:#7d7b7f; stroke:none;" d="M302 197L303 198L302 197z"/>
<path style="fill:#a9a7ac; stroke:none;" d="M303.333 198.667L303.667 199.333L303.333 198.667z"/>
<path style="fill:#413e76; stroke:none;" d="M356.333 199.667L356.667 200.333L356.333 199.667z"/>
<path style="fill:#483f7d; stroke:none;" d="M336 200L338 203L336 200z"/>
<path style="fill:#76737b; stroke:none;" d="M158.333 201.667L158.667 202.333L158.333 201.667z"/>
<path style="fill:#b6adb7; stroke:none;" d="M209 201L207 207L208 207L209 201z"/>
<path style="fill:#271f4b; stroke:none;" d="M357 202L359 212L360 212L357 202z"/>
<path style="fill:#6c6972; stroke:none;" d="M157 203L157 206L158 206L157 203z"/>
<path style="fill:#5a5490; stroke:none;" d="M179.333 204.667L179.667 205.333L179.333 204.667z"/>
<path style="fill:#837f8a; stroke:none;" d="M307 205L309 208L307 205z"/>
<path style="fill:#8b8791; stroke:none;" d="M156.333 206.667L156.667 207.333L156.333 206.667z"/>
<path style="fill:#99939b; stroke:none;" d="M206.333 207.667L206.667 208.333L206.333 207.667z"/>
<path style="fill:#50467d; stroke:none;" d="M340 207L341 212L342 212L340 207z"/>
<path style="fill:#59555e; stroke:none;" d="M205.333 208.667L205.667 209.333L205.333 208.667z"/>
<path style="fill:#8f8f91; stroke:none;" d="M309.333 209.667L309.667 210.333L309.333 209.667z"/>
<path style="fill:#a1a0a6; stroke:none;" d="M155.333 210.667L155.667 211.333L155.333 210.667z"/>
<path style="fill:#b0aeb4; stroke:none;" d="M205.333 210.667L205.667 211.333L205.333 210.667z"/>
<path style="fill:#7b7981; stroke:none;" d="M204.333 211.667L204.667 212.333L204.333 211.667z"/>
<path style="fill:#5d5d61; stroke:none;" d="M310 212L311 217L312 217L310 212z"/>
<path style="fill:#6d65a3; stroke:none;" d="M360 212L360 217L361 217L360 212z"/>
<path style="fill:#6c6872; stroke:none;" d="M154.333 213.667L154.667 214.333L154.333 213.667z"/>
<path style="fill:#77737d; stroke:none;" d="M203.333 214.667L203.667 215.333L203.333 214.667z"/>
<path style="fill:#948f95; stroke:none;" d="M132 215L132 293L133 293L133 239L132 215z"/>
<path style="fill:#494652; stroke:none;" d="M153.333 215.667L153.667 216.333L153.333 215.667z"/>
<path style="fill:#b2aeb8; stroke:none;" d="M154.333 215.667L154.667 216.333L154.333 215.667z"/>
<path style="fill:#736d78; stroke:none;" d="M202 216L201 222L202 222L202 216z"/>
<path style="fill:#817c8b; stroke:none;" d="M153 217L153 220L154 220L153 217z"/>
<path style="fill:#a6a5ab; stroke:none;" d="M311 217L311 222L312 222L311 217z"/>
<path style="fill:#5c5a92; stroke:none;" d="M343.667 217.333L344.333 217.667L343.667 217.333z"/>
<path style="fill:#453a79; stroke:none;" d="M169.667 219.333L170.333 219.667L169.667 219.333z"/>
<path style="fill:#393361; stroke:none;" d="M165 221L165 222L169 221L165 221z"/>
<path style="fill:#534a7f; stroke:none;" d="M350 220L353 222L350 220z"/>
<path style="fill:#bdbabf; stroke:none;" d="M202.667 221.333L203.333 221.667L202.667 221.333z"/>
<path style="fill:#837e87; stroke:none;" d="M203.667 222.333L204.333 222.667L203.667 222.333z"/>
<path style="fill:#8d8c90; stroke:none;" d="M312 222L312 233L313 233L312 222z"/>
<path style="fill:#aaa2b2; stroke:none;" d="M152 223L152 228L153 228L152 223z"/>
<path style="fill:#524772; stroke:none;" d="M362 223L362 228L363 228L362 223z"/>
<path style="fill:#36303d; stroke:none;" d="M159 226L162 224L159 226z"/>
<path style="fill:#aba7b1; stroke:none;" d="M208.667 224.333L209.333 224.667L208.667 224.333z"/>
<path style="fill:#2c2732; stroke:none;" d="M155 229L158 227L155 229z"/>
<path style="fill:#87838f; stroke:none;" d="M213 227L214 228L213 227z"/>
<path style="fill:#d8d1e1; stroke:none;" d="M152 228L152 231L154 230L154 229L152 228z"/>
<path style="fill:#cac6cf; stroke:none;" d="M214 228L217 230L214 228z"/>
<path style="fill:#817b89; stroke:none;" d="M154 229L155 230L154 229z"/>
<path style="fill:#787481; stroke:none;" d="M218 232L219 233L218 232z"/>
<path style="fill:#4b4a4e; stroke:none;" d="M317 232L317 233L331 233L317 232z"/>
<path style="fill:#534f5a; stroke:none;" d="M219 233L221 236L219 233z"/>
<path style="fill:#706e6f; stroke:none;" d="M313 233L313 234L317 234L313 233z"/>
<path style="fill:#c5c6c7; stroke:none;" d="M317 233L317 234L327 234L317 233z"/>
<path style="fill:#98979c; stroke:none;" d="M327 233L327 234L331 234L327 233z"/>
<path style="fill:#615e65; stroke:none;" d="M335.667 234.333L336.333 234.667L335.667 234.333z"/>
<path style="fill:#5b585f; stroke:none;" d="M338.667 235.333L339.333 235.667L338.667 235.333z"/>
<path style="fill:#514a55; stroke:none;" d="M176 236L176 237L189 237L176 236z"/>
<path style="fill:#39363f; stroke:none;" d="M221.333 236.667L221.667 237.333L221.333 236.667z"/>
<path style="fill:#918e95; stroke:none;" d="M339.667 236.333L340.333 236.667L339.667 236.333z"/>
<path style="fill:#98939b; stroke:none;" d="M176.667 237.333L177.333 237.667L176.667 237.333z"/>
<path style="fill:#8e8b92; stroke:none;" d="M188 237L188 238L191 238L188 237z"/>
<path style="fill:#a49da5; stroke:none;" d="M173.667 238.333L174.333 238.667L173.667 238.333z"/>
<path style="fill:#b6b3ba; stroke:none;" d="M191 238L191 239L194 239L191 238z"/>
<path style="fill:#504d54; stroke:none;" d="M222.333 238.667L222.667 239.333L222.333 238.667z"/>
<path style="fill:#656368; stroke:none;" d="M344.667 238.333L345.333 238.667L344.667 238.333z"/>
<path style="fill:#b7b2b8; stroke:none;" d="M171.667 239.333L172.333 239.667L171.667 239.333z"/>
<path style="fill:#979398; stroke:none;" d="M194.667 239.333L195.333 239.667L194.667 239.333z"/>
<path style="fill:#524f56; stroke:none;" d="M196 239L199 241L196 239z"/>
<path style="fill:#9d9a9f; stroke:none;" d="M223.333 239.667L223.667 240.333L223.333 239.667z"/>
<path style="fill:#4e4a51; stroke:none;" d="M346 239L349 241L346 239z"/>
<path style="fill:#aaa5ab; stroke:none;" d="M169.667 240.333L170.333 240.667L169.667 240.333z"/>
<path style="fill:#36343a; stroke:none;" d="M223 241L223 247L224 247L223 241z"/>
<path style="fill:#7e7b80; stroke:none;" d="M349 241L350 242L349 241z"/>
<path style="fill:#6e6970; stroke:none;" d="M166 242L167 243L166 242z"/>
<path style="fill:#a5a2a8; stroke:none;" d="M224 242L224 247L225 247L224 242z"/>
<path style="fill:#918e94; stroke:none;" d="M202 243L203 244L202 243z"/>
<path style="fill:#9a949e; stroke:none;" d="M164 244L165 245L164 244z"/>
<path style="fill:#a19da3; stroke:none;" d="M203 244L204 245L203 244z"/>
<path style="fill:#b9b3ba; stroke:none;" d="M205.333 246.667L205.667 247.333L205.333 246.667z"/>
<path style="fill:#938d96; stroke:none;" d="M161 247L162 248L161 247z"/>
<path style="fill:#a29ea8; stroke:none;" d="M223 247L222 251L223 251L223 247z"/>
<path style="fill:#d9d6d9; stroke:none;" d="M355 247L357 250L355 247z"/>
<path style="fill:#746d78; stroke:none;" d="M159 249L160 250L159 249z"/>
<path style="fill:#837f85; stroke:none;" d="M207 250L208 251L207 250z"/>
<path style="fill:#a09ea1; stroke:none;" d="M358 251L360 254L358 251z"/>
<path style="fill:#848089; stroke:none;" d="M209 252L210 253L209 252z"/>
<path style="fill:#b2afb6; stroke:none;" d="M217 253L217 254L221 253L217 253z"/>
<path style="fill:#8a868e; stroke:none;" d="M210 253L210 254L217 254L210 253z"/>
<path style="fill:#b8b6b9; stroke:none;" d="M360.333 254.667L360.667 255.333L360.333 254.667z"/>
<path style="fill:#2f2c34; stroke:none;" d="M154 256L154 259L155 259L156 256L154 256z"/>
<path style="fill:#8f8f91; stroke:none;" d="M361.333 256.667L361.667 257.333L361.333 256.667z"/>
<path style="fill:#47474b; stroke:none;" d="M362 257L362 260L363 260L362 257z"/>
<path style="fill:#b8b4ba; stroke:none;" d="M154.333 259.667L154.667 260.333L154.333 259.667z"/>
<path style="fill:#737078; stroke:none;" d="M153.333 260.667L153.667 261.333L153.333 260.667z"/>
<path style="fill:#c6c4c9; stroke:none;" d="M362.333 260.667L362.667 261.333L362.333 260.667z"/>
<path style="fill:#626067; stroke:none;" d="M363.333 260.667L363.667 261.333L363.333 260.667z"/>
<path style="fill:#dad8da; stroke:none;" d="M363 262L362 281L363 281L363 262z"/>
<path style="fill:#56545c; stroke:none;" d="M152.333 263.667L152.667 264.333L152.333 263.667z"/>
<path style="fill:#605b5e; stroke:none;" d="M364 264L364 276L365 276L364 264z"/>
<path style="fill:#c4c2c8; stroke:none;" d="M152 265L152 277L153 277L152 265z"/>
<path style="fill:#b4b3ba; stroke:none;" d="M153 277L153 280L154 280L153 277z"/>
<path style="fill:#525057; stroke:none;" d="M153.333 280.667L153.667 281.333L153.333 280.667z"/>
<path style="fill:#949197; stroke:none;" d="M154.333 281.667L154.667 282.333L154.333 281.667z"/>
<path style="fill:#636063; stroke:none;" d="M362.333 281.667L362.667 282.333L362.333 281.667z"/>
<path style="fill:#a8a2a5; stroke:none;" d="M103 286L103 292L104 292L103 286z"/>
<path style="fill:#46454a; stroke:none;" d="M359 287L358 291L359 291L359 287z"/>
<path style="fill:#4b4a52; stroke:none;" d="M157.333 288.667L157.667 289.333L157.333 288.667z"/>
<path style="fill:#7c767c; stroke:none;" d="M103 292L103 298L104 298L103 292z"/>
<path style="fill:#8b8d93; stroke:none;" d="M356 292L357 293L356 292z"/>
<path style="fill:#cac7cc; stroke:none;" d="M132 293L132 300L133 300L132 293z"/>
<path style="fill:#39363c; stroke:none;" d="M133 293L133 300L134 300L133 293z"/>
<path style="fill:#a4a2aa; stroke:none;" d="M161 293L162 294L161 293z"/>
<path style="fill:#85868b; stroke:none;" d="M355 293L356 294L355 293z"/>
<path style="fill:#8c8e92; stroke:none;" d="M354 294L355 295L354 294z"/>
<path style="fill:#a0a1a5; stroke:none;" d="M353 295L354 296L353 295z"/>
<path style="fill:#97979c; stroke:none;" d="M383 295L383 298L384 298L383 295z"/>
<path style="fill:#38383c; stroke:none;" d="M413 295L413 303L414 303L413 295z"/>
<path style="fill:#8d8d92; stroke:none;" d="M352 296L353 297L352 296z"/>
<path style="fill:#ccccd0; stroke:none;" d="M165 297L168 299L165 297z"/>
<path style="fill:#63636b; stroke:none;" d="M167 299L168 300L167 299z"/>
<path style="fill:#979599; stroke:none;" d="M348 299L349 300L348 299z"/>
<path style="fill:#b8b6ba; stroke:none;" d="M412 299L412 302L413 302L412 299z"/>
<path style="fill:#d5d4d8; stroke:none;" d="M133 300L133 304L134 304L133 300z"/>
<path style="fill:#75737a; stroke:none;" d="M344 301L344 302L348 301L344 301z"/>
<path style="fill:#96959a; stroke:none;" d="M170.667 301.333L171.333 301.667L170.667 301.333z"/>
<path style="fill:#6a686f; stroke:none;" d="M382.333 301.667L382.667 302.333L382.333 301.667z"/>
<path style="fill:#a19fa4; stroke:none;" d="M172.667 302.333L173.333 302.667L172.667 302.333z"/>
<path style="fill:#747379; stroke:none;" d="M342.667 302.333L343.333 302.667L342.667 302.333z"/>
<path style="fill:#757478; stroke:none;" d="M412 302L412 305L413 305L412 302z"/>
<path style="fill:#a19ca7; stroke:none;" d="M104 303L104 306L105 306L104 303z"/>
<path style="fill:#adaaaf; stroke:none;" d="M175.667 303.333L176.333 303.667L175.667 303.333z"/>
<path style="fill:#a7a4ab; stroke:none;" d="M382.333 303.667L382.667 304.333L382.333 303.667z"/>
<path style="fill:#716f74; stroke:none;" d="M134 304L134 307L135 307L134 304z"/>
<path style="fill:#444144; stroke:none;" d="M176 304L176 305L179 305L176 304z"/>
<path style="fill:#ddddd8; stroke:none;" d="M179 304L179 305L333 305C321.068 299.993 299.991 304 287 304L179 304z"/>
<path style="fill:#635f64; stroke:none;" d="M333 304L333 305L339 305L333 304z"/>
<path style="fill:#6e6b6b; stroke:none;" d="M179 305L179 306L331 306C319.068 300.993 297.991 305 285 305L179 305z"/>
<path style="fill:#333035; stroke:none;" d="M331 305L331 306L336 306L331 305z"/>
<path style="fill:#615c67; stroke:none;" d="M104 306L104 309L105 309L104 306z"/>
<path style="fill:#6f6c74; stroke:none;" d="M381 306L381 309L382 309L381 306z"/>
<path style="fill:#56555a; stroke:none;" d="M135 307L135 310L136 310L135 307z"/>
<path style="fill:#b2afb6; stroke:none;" d="M105.333 309.667L105.667 310.333L105.333 309.667z"/>
<path style="fill:#656168; stroke:none;" d="M380 309L380 312L381 312L380 309z"/>
<path style="fill:#c9c7cb; stroke:none;" d="M381.333 309.667L381.667 310.333L381.333 309.667z"/>
<path style="fill:#a7a6aa; stroke:none;" d="M135 310L135 313L136 313L135 310z"/>
<path style="fill:#c7c7c9; stroke:none;" d="M410 310L410 313L411 313L410 310z"/>
<path style="fill:#606064; stroke:none;" d="M411.333 310.667L411.667 311.333L411.333 310.667z"/>
<path style="fill:#7e7b82; stroke:none;" d="M105 311L105 314L106 314L105 311z"/>
<path style="fill:#59585c; stroke:none;" d="M136 311L136 314L137 314L136 311z"/>
<path style="fill:#c8c7cb; stroke:none;" d="M106 312L106 315L107 315L106 312z"/>
<path style="fill:#76717a; stroke:none;" d="M379.333 313.667L379.667 314.333L379.333 313.667z"/>
<path style="fill:#8a898e; stroke:none;" d="M410.333 313.667L410.667 314.333L410.333 313.667z"/>
<path style="fill:#7f7e81; stroke:none;" d="M106 315L106 318L107 318L106 315z"/>
<path style="fill:#727075; stroke:none;" d="M137.333 315.667L137.667 316.333L137.333 315.667z"/>
<path style="fill:#555458; stroke:none;" d="M410 315L410 318L411 318L410 315z"/>
<path style="fill:#a6a6a9; stroke:none;" d="M409 316L409 319L410 319L409 316z"/>
<path style="fill:#4b464d; stroke:none;" d="M138 317L138 320L139 320L138 317z"/>
<path style="fill:#948f97; stroke:none;" d="M378.333 317.667L378.667 318.333L378.333 317.667z"/>
<path style="fill:#a3a3aa; stroke:none;" d="M107 318L107 321L108 321L107 318z"/>
<path style="fill:#58535c; stroke:none;" d="M377 318L377 321L378 321L377 318z"/>
<path style="fill:#79737b; stroke:none;" d="M139.333 320.667L139.667 321.333L139.333 320.667z"/>
<path style="fill:#afabb3; stroke:none;" d="M377 321L376 324L377 321z"/>
<path style="fill:#74727c; stroke:none;" d="M408.333 321.667L408.667 322.333L408.333 321.667z"/>
<path style="fill:#d6d6dc; stroke:none;" d="M108 322L109 326L110 326L108 322z"/>
<path style="fill:#a9a4aa; stroke:none;" d="M139 322L141 325L139 322z"/>
<path style="fill:#c8c8ce; stroke:none;" d="M407 322L407 325L408 325L407 322z"/>
<path style="fill:#1c173e; stroke:none;" d="M178 326L179 326L195 324C191.444 321.951 179.019 321.243 178 326z"/>
<path style="fill:#544d84; stroke:none;" d="M179 324L180 330L181 330L180 325L195 325L179 324z"/>
<path style="fill:#474674; stroke:none;" d="M322 324L322 325L338 327C339.786 322.262 325.168 324 322 324z"/>
<path style="fill:#8c85e9; stroke:none;" d="M180 325C182.145 339.261 199.941 356.924 214 360C214 355.268 215.204 348.603 213.397 344.17C207.974 330.867 192.513 325 180 325z"/>
<path style="fill:#1a113a; stroke:none;" d="M231 325L231 367L232 367C232 355.043 235.611 335.988 231 325z"/>
<path style="fill:#584b90; stroke:none;" d="M232 325L232 367L233 367L233 326L250 326L232 325z"/>
<path style="fill:#241b4f; stroke:none;" d="M268 325L268 326L286 326L268 325z"/>
<path style="fill:#8b89e2; stroke:none;" d="M305 360C319.062 353.933 334.357 340.332 338 325L321.61 326.028L314.79 334.541L305.742 342.209L305 360z"/>
<path style="fill:#515056; stroke:none;" d="M407.333 325.667L407.667 326.333L407.333 325.667z"/>
<path style="fill:#777680; stroke:none;" d="M109.333 326.667L109.667 327.333L109.333 326.667z"/>
<path style="fill:#8075c4; stroke:none;" d="M233 326L233 330L234 330L234 327L249 327L249 374L250 374L250 326L233 326z"/>
<path style="fill:#47407d; stroke:none;" d="M250 326L250 374L246 374L246 375L251 376C251 361.951 255.409 338.89 250 326z"/>
<path style="fill:#433a6f; stroke:none;" d="M267 326L267 362C267 365.986 265.273 372.987 270 374L270 373C261.308 361.527 272.509 339.129 267 326z"/>
<path style="fill:#766bae; stroke:none;" d="M268 326L268 327L285 327L268 326z"/>
<path style="fill:#4c4281; stroke:none;" d="M285 326L285 366L286 366C286 354.566 289.411 336.512 285 326z"/>
<path style="fill:#938e9a; stroke:none;" d="M374 326L373 330L374 330L374 326z"/>
<path style="fill:#908f93; stroke:none;" d="M406.333 326.667L406.667 327.333L406.333 326.667z"/>
<path style="fill:#8b888e; stroke:none;" d="M142.333 327.667L142.667 328.333L142.333 327.667z"/>
<path style="fill:#8e7ee2; stroke:none;" d="M234 327L233 356L234.028 367.441L249 374L249 327L234 327z"/>
<path style="fill:#8d85df; stroke:none;" d="M268 327L268 373L285 367L285 327L268 327z"/>
<path style="fill:#594d89; stroke:none;" d="M337 327L337 330L338 330L337 327z"/>
<path style="fill:#807f86; stroke:none;" d="M110.333 328.667L110.667 329.333L110.333 328.667z"/>
<path style="fill:#776fb9; stroke:none;" d="M197 328L199 331L197 328z"/>
<path style="fill:#a8a5aa; stroke:none;" d="M143.333 329.667L143.667 330.333L143.333 329.667z"/>
<path style="fill:#858287; stroke:none;" d="M405.333 329.667L405.667 330.333L405.333 329.667z"/>
<path style="fill:#2c235a; stroke:none;" d="M182 333L184 336L182 333z"/>
<path style="fill:#706baa; stroke:none;" d="M314 336L317 333L314 336z"/>
<path style="fill:#bebcbf; stroke:none;" d="M403 333L403 336L404 336L405 333L403 333z"/>
<path style="fill:#65646a; stroke:none;" d="M112.333 334.667L112.667 335.333L112.333 334.667z"/>
<path style="fill:#aeaab0; stroke:none;" d="M370.333 334.667L370.667 335.333L370.333 334.667z"/>
<path style="fill:#a29fa6; stroke:none;" d="M113 335L113 338L114 338L113 335z"/>
<path style="fill:#c0bec0; stroke:none;" d="M146.333 335.667L146.667 336.333L146.333 335.667z"/>
<path style="fill:#58565a; stroke:none;" d="M402.333 337.667L402.667 338.333L402.333 337.667z"/>
<path style="fill:#666369; stroke:none;" d="M114.333 338.667L114.667 339.333L114.333 338.667z"/>
<path style="fill:#1f1a52; stroke:none;" d="M330 339L328 343L330 339z"/>
<path style="fill:#80777f; stroke:none;" d="M367 339L368 340L367 339z"/>
<path style="fill:#6c6a6e; stroke:none;" d="M401.333 339.667L401.667 340.333L401.333 339.667z"/>
<path style="fill:#adabac; stroke:none;" d="M149 340L151 343L149 340z"/>
<path style="fill:#4c427f; stroke:none;" d="M211 341L211 342L214 343L211 341z"/>
<path style="fill:#6a62a2; stroke:none;" d="M304 341C304 346.249 301.865 357.387 306 361L306 341L304 341z"/>
<path style="fill:#716e75; stroke:none;" d="M400 341L398 347L399 347L400 341z"/>
<path style="fill:#2c2552; stroke:none;" d="M303 342L303 361L304 361L303 342z"/>
<path style="fill:#6c6a6f; stroke:none;" d="M116 343L118 346L116 343z"/>
<path style="fill:#8173bf; stroke:none;" d="M214 343L212 360L212 361C216.797 359.972 216.083 346.615 214 343z"/>
<path style="fill:#281e4e; stroke:none;" d="M215 343L215 361L216 361L215 343z"/>
<path style="fill:#858387; stroke:none;" d="M364 343L365 344L364 343z"/>
<path style="fill:#706d73; stroke:none;" d="M363 344L364 345L363 344z"/>
<path style="fill:#64616a; stroke:none;" d="M362 345L363 346L362 345z"/>
<path style="fill:#d5d2d5; stroke:none;" d="M153 346L155 349L153 346z"/>
<path style="fill:#747175; stroke:none;" d="M155 348L156 349L155 348z"/>
<path style="fill:#87838a; stroke:none;" d="M359 349L360 350L359 349z"/>
<path style="fill:#76757b; stroke:none;" d="M396 349L395 352L396 349z"/>
<path style="fill:#615e66; stroke:none;" d="M120.333 350.667L120.667 351.333L120.333 350.667z"/>
<path style="fill:#79757c; stroke:none;" d="M357 351L358 352L357 351z"/>
<path style="fill:#423d46; stroke:none;" d="M121.333 352.667L121.667 353.333L121.333 352.667z"/>
<path style="fill:#6d65b2; stroke:none;" d="M200 352L203 354L200 352z"/>
<path style="fill:#646067; stroke:none;" d="M356 352L357 353L356 352z"/>
<path style="fill:#878589; stroke:none;" d="M159 353L160 354L159 353z"/>
<path style="fill:#646166; stroke:none;" d="M355 353L356 354L355 353z"/>
<path style="fill:#7d7b7d; stroke:none;" d="M160 354L161 355L160 354z"/>
<path style="fill:#6d6a6f; stroke:none;" d="M354 354L355 355L354 354z"/>
<path style="fill:#9b989f; stroke:none;" d="M393 354L394 355L393 354z"/>
<path style="fill:#6154a3; stroke:none;" d="M204 355L207 357L204 355z"/>
<path style="fill:#6d6970; stroke:none;" d="M353 355L354 356L353 355z"/>
<path style="fill:#6f6c72; stroke:none;" d="M392.333 355.667L392.667 356.333L392.333 355.667z"/>
<path style="fill:#7e7c7d; stroke:none;" d="M162 356L163 357L162 356z"/>
<path style="fill:#706a74; stroke:none;" d="M352 356L353 357L352 356z"/>
<path style="fill:#38343e; stroke:none;" d="M124.333 357.667L124.667 358.333L124.333 357.667z"/>
<path style="fill:#766f7b; stroke:none;" d="M351 357L352 358L351 357z"/>
<path style="fill:#9b98a0; stroke:none;" d="M125 358L126 359L125 358z"/>
<path style="fill:#908e8f; stroke:none;" d="M164 358L165 359L164 358z"/>
<path style="fill:#333060; stroke:none;" d="M306 361L310 359L306 361z"/>
<path style="fill:#7e7984; stroke:none;" d="M126 360L127 361L126 360z"/>
<path style="fill:#929294; stroke:none;" d="M389 360L390 361L389 360z"/>
<path style="fill:#837c7e; stroke:none;" d="M169 362L170 363L169 362z"/>
<path style="fill:#766d7c; stroke:none;" d="M345 362L346 363L345 362z"/>
<path style="fill:#8c898b; stroke:none;" d="M170 363L171 364L170 363z"/>
<path style="fill:#89858e; stroke:none;" d="M129 364L130 365L129 364z"/>
<path style="fill:#9e9aa2; stroke:none;" d="M386 364L387 365L386 364z"/>
<path style="fill:#625b65; stroke:none;" d="M341 365L342 366L341 365z"/>
<path style="fill:#636469; stroke:none;" d="M174 366L177 368L174 366z"/>
<path style="fill:#312c33; stroke:none;" d="M131 367L133 370L131 367z"/>
<path style="fill:#2a1f5e; stroke:none;" d="M280 368L280 369L285 368L280 368z"/>
<path style="fill:#a8a2aa; stroke:none;" d="M338.667 367.333L339.333 367.667L338.667 367.333z"/>
<path style="fill:#888a8c; stroke:none;" d="M177 368L178 369L177 368z"/>
<path style="fill:#77707a; stroke:none;" d="M337 368L338 369L337 368z"/>
<path style="fill:#261f4e; stroke:none;" d="M236 369L236 370L240 371L240 370L236 369z"/>
<path style="fill:#a3a0a8; stroke:none;" d="M331 371L331 372L337 370L331 371z"/>
<path style="fill:#a09da1; stroke:none;" d="M382 369L383 370L382 369z"/>
<path style="fill:#6c6d6f; stroke:none;" d="M180.667 370.333L181.333 370.667L180.667 370.333z"/>
<path style="fill:#9d9a9f; stroke:none;" d="M381 370L382 371L381 370z"/>
<path style="fill:#585558; stroke:none;" d="M134 371L135 372L134 371z"/>
<path style="fill:#4d4e4d; stroke:none;" d="M182.667 371.333L183.333 371.667L182.667 371.333z"/>
<path style="fill:#a7a5a9; stroke:none;" d="M380 371L381 372L380 371z"/>
<path style="fill:#706b77; stroke:none;" d="M330 372L331 373L330 372z"/>
<path style="fill:#47484a; stroke:none;" d="M186.667 373.333L187.333 373.667L186.667 373.333z"/>
<path style="fill:#d1cfd6; stroke:none;" d="M327 375L330 373L327 375z"/>
<path style="fill:#767277; stroke:none;" d="M137 374L138 375L137 374z"/>
<path style="fill:#868389; stroke:none;" d="M187.667 374.333L188.333 374.667L187.667 374.333z"/>
<path style="fill:#545059; stroke:none;" d="M323 375L323 376L327 375L323 375z"/>
<path style="fill:#666468; stroke:none;" d="M378 374L379 375L378 374z"/>
<path style="fill:#908c91; stroke:none;" d="M138 375L139 376L138 375z"/>
<path style="fill:#706d70; stroke:none;" d="M189.667 375.333L190.333 375.667L189.667 375.333z"/>
<path style="fill:#6a666c; stroke:none;" d="M377 375L378 376L377 375z"/>
<path style="fill:#848085; stroke:none;" d="M139 376L140 377L139 376z"/>
<path style="fill:#484547; stroke:none;" d="M192.667 376.333L193.333 376.667L192.667 376.333z"/>
<path style="fill:#d8d5d9; stroke:none;" d="M321 378L324 376L321 378z"/>
<path style="fill:#878387; stroke:none;" d="M140 377L141 378L140 377z"/>
<path style="fill:#a3a1a3; stroke:none;" d="M193.667 377.333L194.333 377.667L193.667 377.333z"/>
<path style="fill:#3f3d40; stroke:none;" d="M195.667 377.333L196.333 377.667L195.667 377.333z"/>
<path style="fill:#87808b; stroke:none;" d="M319.667 377.333L320.333 377.667L319.667 377.333z"/>
<path style="fill:#a9a8ac; stroke:none;" d="M195.667 378.333L196.333 378.667L195.667 378.333z"/>
<path style="fill:#515054; stroke:none;" d="M197.667 378.333L198.333 378.667L197.667 378.333z"/>
<path style="fill:#585061; stroke:none;" d="M316 378L316 379L319 379L316 378z"/>
<path style="fill:#6c696f; stroke:none;" d="M374 378L375 379L374 378z"/>
<path style="fill:#4d4d52; stroke:none;" d="M199.667 379.333L200.333 379.667L199.667 379.333z"/>
<path style="fill:#a29ba8; stroke:none;" d="M315.667 379.333L316.333 379.667L315.667 379.333z"/>
<path style="fill:#807d84; stroke:none;" d="M143 380L144 381L143 380z"/>
<path style="fill:#888a8d; stroke:none;" d="M201.667 380.333L202.333 380.667L201.667 380.333z"/>
<path style="fill:#99949f; stroke:none;" d="M312.667 380.333L313.333 380.667L312.667 380.333z"/>
<path style="fill:#7b777d; stroke:none;" d="M144 381L145 382L144 381z"/>
<path style="fill:#c4c5c6; stroke:none;" d="M202 381L202 382L205 382L202 381z"/>
<path style="fill:#4e5155; stroke:none;" d="M205.667 381.333L206.333 381.667L205.667 381.333z"/>
<path style="fill:#57535b; stroke:none;" d="M308 381L308 382L311 382L308 381z"/>
<path style="fill:#848789; stroke:none;" d="M206.667 382.333L207.333 382.667L206.667 382.333z"/>
<path style="fill:#433e45; stroke:none;" d="M305 382L305 383L308 383L305 382z"/>
<path style="fill:#bfbbc1; stroke:none;" d="M308.667 382.333L309.333 382.667L308.667 382.333z"/>
<path style="fill:#6a686b; stroke:none;" d="M146 383L147 384L146 383z"/>
<path style="fill:#808085; stroke:none;" d="M209.667 383.333L210.333 383.667L209.667 383.333z"/>
<path style="fill:#949197; stroke:none;" d="M304.667 383.333L305.333 383.667L304.667 383.333z"/>
<path style="fill:#a6a5a8; stroke:none;" d="M368 383L369 384L368 383z"/>
<path style="fill:#c0c3c4; stroke:none;" d="M211 384L211 385L215 386L215 385L211 384z"/>
<path style="fill:#66626a; stroke:none;" d="M300.667 384.333L301.333 384.667L300.667 384.333z"/>
<path style="fill:#7f7f81; stroke:none;" d="M367 384L368 385L367 384z"/>
<path style="fill:#8b8b8e; stroke:none;" d="M215 385L215 386L219 387L219 386L215 385z"/>
<path style="fill:#49454d; stroke:none;" d="M296 385L296 386L299 386L296 385z"/>
<path style="fill:#afadb2; stroke:none;" d="M299.667 385.333L300.333 385.667L299.667 385.333z"/>
<path style="fill:#3a363f; stroke:none;" d="M293.667 386.333L294.333 386.667L293.667 386.333z"/>
<path style="fill:#8a888e; stroke:none;" d="M295.667 386.333L296.333 386.667L295.667 386.333z"/>
<path style="fill:#69646a; stroke:none;" d="M221.667 387.333L222.333 387.667L221.667 387.333z"/>
<path style="fill:#68646c; stroke:none;" d="M291.667 387.333L292.333 387.667L291.667 387.333z"/>
<path style="fill:#737074; stroke:none;" d="M224.667 388.333L225.333 388.667L224.667 388.333z"/>
<path style="fill:#76717b; stroke:none;" d="M288.667 388.333L289.333 388.667L288.667 388.333z"/>
<path style="fill:#d8d5da; stroke:none;" d="M154 389L157 391L154 389z"/>
<path style="fill:#adacaf; stroke:none;" d="M225 389L225 390L228 390L225 389z"/>
<path style="fill:#58535c; stroke:none;" d="M285.667 389.333L286.333 389.667L285.667 389.333z"/>
<path style="fill:#b1adb4; stroke:none;" d="M287.667 389.333L288.333 389.667L287.667 389.333z"/>
<path style="fill:#7d7a7f; stroke:none;" d="M229 390L229 391L232 391L229 390z"/>
<path style="fill:#a19ca3; stroke:none;" d="M284.667 390.333L285.333 390.667L284.667 390.333z"/>
<path style="fill:#3f3d45; stroke:none;" d="M233.667 391.333L234.333 391.667L233.667 391.333z"/>
<path style="fill:#c8c5c9; stroke:none;" d="M280 393L283 391L280 393z"/>
<path style="fill:#b8b6b9; stroke:none;" d="M158 392L161 394L158 392z"/>
<path style="fill:#bcbbbf; stroke:none;" d="M233 392L233 393L236 393L233 392z"/>
<path style="fill:#3f3d43; stroke:none;" d="M236.667 392.333L237.333 392.667L236.667 392.333z"/>
<path style="fill:#767278; stroke:none;" d="M278.667 392.333L279.333 392.667L278.667 392.333z"/>
<path style="fill:#363339; stroke:none;" d="M355 394L358 392L355 394z"/>
<path style="fill:#726f77; stroke:none;" d="M237.667 393.333L238.333 393.667L237.667 393.333z"/>
<path style="fill:#b9b6ba; stroke:none;" d="M277.667 393.333L278.333 393.667L277.667 393.333z"/>
<path style="fill:#878387; stroke:none;" d="M161 394L162 395L161 394z"/>
<path style="fill:#4b4950; stroke:none;" d="M240.667 394.333L241.333 394.667L240.667 394.333z"/>
<path style="fill:#000000; stroke:none;" d="M0 395L0 512L118 512L118 511C73.0471 510.072 31.0283 474.771 12.2585 436C5.90149 422.869 5.56632 407.904 0 395z"/>
<path style="fill:#69666d; stroke:none;" d="M242.667 395.333L243.333 395.667L242.667 395.333z"/>
<path style="fill:#88838b; stroke:none;" d="M270 398L274 396L270 398z"/>
<path style="fill:#000000; stroke:none;" d="M511 395C509.821 452.112 450.794 509.828 394 511L394 512L512 512L512 430L511 395z"/>
<path style="fill:#b2afb5; stroke:none;" d="M164.667 396.333L165.333 396.667L164.667 396.333z"/>
<path style="fill:#a19fa4; stroke:none;" d="M243 396L243 397L246 397L243 396z"/>
<path style="fill:#525157; stroke:none;" d="M348 398L351 396L348 398z"/>
<path style="fill:#4f4e50; stroke:none;" d="M246.667 397.333L247.333 397.667L246.667 397.333z"/>
<path style="fill:#a8a8aa; stroke:none;" d="M346 398L347 399L346 398z"/>
<path style="fill:#a29fa2; stroke:none;" d="M169.667 399.333L170.333 399.667L169.667 399.333z"/>
<path style="fill:#656265; stroke:none;" d="M250 399L253 401L250 399z"/>
<path style="fill:#ccc9ca; stroke:none;" d="M266.667 399.333L267.333 399.667L266.667 399.333z"/>
<path style="fill:#7e7e7e; stroke:none;" d="M342 400L342 401L346 400L342 400z"/>
<path style="fill:#979398; stroke:none;" d="M171 400L174 402L171 400z"/>
<path style="fill:#aca8ab; stroke:none;" d="M264.667 400.333L265.333 400.667L264.667 400.333z"/>
<path style="fill:#949296; stroke:none;" d="M253 401L254 402L253 401z"/>
<path style="fill:#646266; stroke:none;" d="M338.667 402.333L339.333 402.667L338.667 402.333z"/>
<path style="fill:#848087; stroke:none;" d="M176.667 403.333L177.333 403.667L176.667 403.333z"/>
<path style="fill:#413f42; stroke:none;" d="M256 403L256 404L260 404L256 403z"/>
<path style="fill:#676469; stroke:none;" d="M336.667 403.333L337.333 403.667L336.667 403.333z"/>
<path style="fill:#928d95; stroke:none;" d="M178.667 404.333L179.333 404.667L178.667 404.333z"/>
<path style="fill:#8f8e8f; stroke:none;" d="M257.667 404.333L258.333 404.667L257.667 404.333z"/>
<path style="fill:#b0adb3; stroke:none;" d="M181.667 405.333L182.333 405.667L181.667 405.333z"/>
<path style="fill:#86838a; stroke:none;" d="M183.667 406.333L184.333 406.667L183.667 406.333z"/>
<path style="fill:#2c2b30; stroke:none;" d="M328 408L331 406L328 408z"/>
<path style="fill:#76727a; stroke:none;" d="M185.667 407.333L186.333 407.667L185.667 407.333z"/>
<path style="fill:#c1c0c4; stroke:none;" d="M187.667 407.333L188.333 407.667L187.667 407.333z"/>
<path style="fill:#aaa8ac; stroke:none;" d="M325 407L325 408L328 408L325 407z"/>
<path style="fill:#818185; stroke:none;" d="M188.667 408.333L189.333 408.667L188.667 408.333z"/>
<path style="fill:#67636a; stroke:none;" d="M324.667 408.333L325.333 408.667L324.667 408.333z"/>
<path style="fill:#7a7b7f; stroke:none;" d="M191.667 409.333L192.333 409.667L191.667 409.333z"/>
<path style="fill:#626167; stroke:none;" d="M321.667 409.333L322.333 409.667L321.667 409.333z"/>
<path style="fill:#a0a0a3; stroke:none;" d="M195.667 410.333L196.333 410.667L195.667 410.333z"/>
<path style="fill:#98979a; stroke:none;" d="M317.667 410.333L318.333 410.667L317.667 410.333z"/>
<path style="fill:#47454b; stroke:none;" d="M319.667 410.333L320.333 410.667L319.667 410.333z"/>
<path style="fill:#3c3b41; stroke:none;" d="M195 411L195 412L198 412L195 411z"/>
<path style="fill:#9b999d; stroke:none;" d="M198 411L198 412L202 413L202 412L198 411z"/>
<path style="fill:#59585c; stroke:none;" d="M316.667 411.333L317.333 411.667L316.667 411.333z"/>
<path style="fill:#8e8d91; stroke:none;" d="M312.667 412.333L313.333 412.667L312.667 412.333z"/>
<path style="fill:#949196; stroke:none;" d="M203.667 413.333L204.333 413.667L203.667 413.333z"/>
<path style="fill:#89868b; stroke:none;" d="M309.667 413.333L310.333 413.667L309.667 413.333z"/>
<path style="fill:#4e4c52; stroke:none;" d="M204 414L204 415L207 415L204 414z"/>
<path style="fill:#b4b2b5; stroke:none;" d="M207 414L207 415L210 415L207 414z"/>
<path style="fill:#928f94; stroke:none;" d="M306 414L306 415L309 415L306 414z"/>
<path style="fill:#4b494e; stroke:none;" d="M207 415L207 416L210 416L207 415z"/>
<path style="fill:#514e51; stroke:none;" d="M305.667 415.333L306.333 415.667L305.667 415.333z"/>
<path style="fill:#7a7878; stroke:none;" d="M211.667 416.333L212.333 416.667L211.667 416.333z"/>
<path style="fill:#828081; stroke:none;" d="M301.667 416.333L302.333 416.667L301.667 416.333z"/>
<path style="fill:#4f4c4f; stroke:none;" d="M213 417L213 418L216 418L213 417z"/>
<path style="fill:#848285; stroke:none;" d="M298.667 417.333L299.333 417.667L298.667 417.333z"/>
<path style="fill:#656168; stroke:none;" d="M216 418L216 419L219 419L216 418z"/>
<path style="fill:#a7a5a8; stroke:none;" d="M295 418L295 419L298 419L295 418z"/>
<path style="fill:#838089; stroke:none;" d="M219.667 419.333L220.333 419.667L219.667 419.333z"/>
<path style="fill:#646266; stroke:none;" d="M294.667 419.333L295.333 419.667L294.667 419.333z"/>
<path style="fill:#6e6c71; stroke:none;" d="M224.667 421.333L225.333 421.667L224.667 421.333z"/>
<path style="fill:#6e6b70; stroke:none;" d="M289.667 421.333L290.333 421.667L289.667 421.333z"/>
<path style="fill:#6e6d74; stroke:none;" d="M226.667 422.333L227.333 422.667L226.667 422.333z"/>
<path style="fill:#a5a2a8; stroke:none;" d="M228 422L231 424L228 422z"/>
<path style="fill:#aeabaf; stroke:none;" d="M286 422L286 424L288 422L286 422z"/>
<path style="fill:#363338; stroke:none;" d="M288.667 422.333L289.333 422.667L288.667 422.333z"/>
<path style="fill:#9b999a; stroke:none;" d="M233.667 425.333L234.333 425.667L233.667 425.333z"/>
<path style="fill:#413e45; stroke:none;" d="M280 427L283 425L280 427z"/>
<path style="fill:#b3b1b1; stroke:none;" d="M235.667 426.333L236.333 426.667L235.667 426.333z"/>
<path style="fill:#c4c2c3; stroke:none;" d="M237.667 427.333L238.333 427.667L237.667 427.333z"/>
<path style="fill:#47434c; stroke:none;" d="M278.667 427.333L279.333 427.667L278.667 427.333z"/>
<path style="fill:#3e3b46; stroke:none;" d="M275 430L278 428L275 430z"/>
<path style="fill:#aca8af; stroke:none;" d="M240.667 429.333L241.333 429.667L240.667 429.333z"/>
<path style="fill:#d2d0d3; stroke:none;" d="M245 432L248 434L245 432z"/>
<path style="fill:#a3a2a6; stroke:none;" d="M269 433L270 434L269 433z"/>
<path style="fill:#929196; stroke:none;" d="M268 434L269 435L268 434z"/>
<path style="fill:#7f7a82; stroke:none;" d="M250 436L251 437L250 436z"/>
<path style="fill:#c9c7cb; stroke:none;" d="M251.667 437.333L252.333 437.667L251.667 437.333z"/>
<path style="fill:#aaa6ab; stroke:none;" d="M264 437L265 438L264 437z"/>
<path style="fill:#948f93; stroke:none;" d="M263 438L264 439L263 438z"/>
<path style="fill:#9e9b9f; stroke:none;" d="M254 439L255 440L254 439z"/>
<path style="fill:#7f787e; stroke:none;" d="M261 440L262 441L261 440z"/>
<path style="fill:#8c858c; stroke:none;" d="M260 441L261 442L260 441z"/>
</svg>
